<?xml version="1.0" encoding="UTF-8" standalone="no"?>
<!DOCTYPE svg PUBLIC "-//W3C//DTD SVG 1.1//EN"
 "http://www.w3.org/Graphics/SVG/1.1/DTD/svg11.dtd">
<!-- Generated by graphviz version 2.40.1 (20161225.0304)
 -->
<!-- Title: dependencies Pages: 1 -->
<svg width="1820pt" height="211pt"
 viewBox="0.00 0.00 1820.00 211.00" xmlns="http://www.w3.org/2000/svg" xmlns:xlink="http://www.w3.org/1999/xlink">
<g id="graph0" class="graph" transform="scale(1 1) rotate(0) translate(4 207)">
<title>dependencies</title>
<polygon fill="#ffffff" stroke="transparent" points="-4,4 -4,-207 1816,-207 1816,4 -4,4"/>
<text text-anchor="start" x="885.0091" y="-42.4" font-family="sans-serif" font-weight="bold" font-size="14.00" fill="#000000">Legend</text>
<polygon fill="#ffffb3" stroke="transparent" points="672,-10 672,-30 692,-30 692,-10 672,-10"/>
<text text-anchor="start" x="695.629" y="-15.4" font-family="sans-serif" font-size="14.00" fill="#000000"> &#160;Declarations</text>
<polygon fill="#8dd3c7" stroke="transparent" points="785,-10 785,-30 805,-30 805,-10 785,-10"/>
<text text-anchor="start" x="808.7251" y="-15.4" font-family="sans-serif" font-size="14.00" fill="#000000"> &#160;Module</text>
<polygon fill="#80b1d3" stroke="transparent" points="871,-10 871,-30 891,-30 891,-10 871,-10"/>
<text text-anchor="start" x="894.7812" y="-15.4" font-family="sans-serif" font-size="14.00" fill="#000000"> &#160;Bootstrap</text>
<polygon fill="#fdb462" stroke="transparent" points="968,-10 968,-30 988,-30 988,-10 968,-10"/>
<text text-anchor="start" x="991.6732" y="-15.4" font-family="sans-serif" font-size="14.00" fill="#000000"> &#160;Providers</text>
<polygon fill="#fb8072" stroke="transparent" points="1064,-10 1064,-30 1084,-30 1084,-10 1064,-10"/>
<text text-anchor="start" x="1087.7258" y="-15.4" font-family="sans-serif" font-size="14.00" fill="#000000"> &#160;Exports</text>
<g id="clust1" class="cluster">
<title>cluster_PrestationsModule</title>
<polygon fill="none" stroke="#000000" stroke-dasharray="1,5" points="8,-70 8,-195 1804,-195 1804,-70 8,-70"/>
</g>
<g id="clust2" class="cluster">
<title>cluster_PrestationsModule_declarations</title>
<polygon fill="none" stroke="#000000" points="317,-78 317,-130 1796,-130 1796,-78 317,-78"/>
</g>
<g id="clust11" class="cluster">
<title>cluster_PrestationsModule_imports</title>
<polygon fill="none" stroke="#000000" points="16,-78 16,-130 309,-130 309,-78 16,-78"/>
</g>
<!-- AddPrestationComponent -->
<g id="node1" class="node">
<title>AddPrestationComponent</title>
<polygon fill="#ffffb3" stroke="#000000" points="1787.9284,-122 1626.0716,-122 1626.0716,-86 1787.9284,-86 1787.9284,-122"/>
<text text-anchor="middle" x="1707" y="-99.8" font-family="Times,serif" font-size="14.00" fill="#000000">AddPrestationComponent</text>
</g>
<!-- PrestationsModule -->
<g id="node9" class="node">
<title>PrestationsModule</title>
<polygon fill="#8dd3c7" stroke="#000000" points="919.4832,-187 916.4832,-191 895.4832,-191 892.4832,-187 798.5168,-187 798.5168,-151 919.4832,-151 919.4832,-187"/>
<text text-anchor="middle" x="859" y="-164.8" font-family="Times,serif" font-size="14.00" fill="#000000">PrestationsModule</text>
</g>
<!-- AddPrestationComponent&#45;&gt;PrestationsModule -->
<g id="edge1" class="edge">
<title>AddPrestationComponent&#45;&gt;PrestationsModule</title>
<path fill="none" stroke="#000000" d="M1707,-122.0109C1707,-144.4852 1707,-180 1707,-180 1707,-180 929.6458,-180 929.6458,-180"/>
<polygon fill="#000000" stroke="#000000" points="929.6458,-176.5001 919.6458,-180 929.6457,-183.5001 929.6458,-176.5001"/>
</g>
<!-- FormPrestationComponent -->
<g id="node2" class="node">
<title>FormPrestationComponent</title>
<polygon fill="#ffffb3" stroke="#000000" points="1607.6554,-122 1440.3446,-122 1440.3446,-86 1607.6554,-86 1607.6554,-122"/>
<text text-anchor="middle" x="1524" y="-99.8" font-family="Times,serif" font-size="14.00" fill="#000000">FormPrestationComponent</text>
</g>
<!-- FormPrestationComponent&#45;&gt;PrestationsModule -->
<g id="edge2" class="edge">
<title>FormPrestationComponent&#45;&gt;PrestationsModule</title>
<path fill="none" stroke="#000000" d="M1524,-122.1289C1524,-142.5724 1524,-173 1524,-173 1524,-173 929.7772,-173 929.7772,-173"/>
<polygon fill="#000000" stroke="#000000" points="929.7772,-169.5001 919.7772,-173 929.7772,-176.5001 929.7772,-169.5001"/>
</g>
<!-- FormPrestationRectiveComponent -->
<g id="node3" class="node">
<title>FormPrestationRectiveComponent</title>
<polygon fill="#ffffb3" stroke="#000000" points="1422.417,-122 1211.583,-122 1211.583,-86 1422.417,-86 1422.417,-122"/>
<text text-anchor="middle" x="1317" y="-99.8" font-family="Times,serif" font-size="14.00" fill="#000000">FormPrestationRectiveComponent</text>
</g>
<!-- FormPrestationRectiveComponent&#45;&gt;PrestationsModule -->
<g id="edge3" class="edge">
<title>FormPrestationRectiveComponent&#45;&gt;PrestationsModule</title>
<path fill="none" stroke="#000000" d="M1317,-122.2667C1317,-140.5552 1317,-166 1317,-166 1317,-166 929.8189,-166 929.8189,-166"/>
<polygon fill="#000000" stroke="#000000" points="929.8189,-162.5001 919.8189,-166 929.8188,-169.5001 929.8189,-162.5001"/>
</g>
<!-- ItemPrestationComponent -->
<g id="node4" class="node">
<title>ItemPrestationComponent</title>
<polygon fill="#ffffb3" stroke="#000000" points="1193.4776,-122 1030.5224,-122 1030.5224,-86 1193.4776,-86 1193.4776,-122"/>
<text text-anchor="middle" x="1112" y="-99.8" font-family="Times,serif" font-size="14.00" fill="#000000">ItemPrestationComponent</text>
</g>
<!-- ItemPrestationComponent&#45;&gt;PrestationsModule -->
<g id="edge4" class="edge">
<title>ItemPrestationComponent&#45;&gt;PrestationsModule</title>
<path fill="none" stroke="#000000" d="M1112,-122.0091C1112,-138.0494 1112,-159 1112,-159 1112,-159 929.5998,-159 929.5998,-159"/>
<polygon fill="#000000" stroke="#000000" points="929.5998,-155.5001 919.5998,-159 929.5998,-162.5001 929.5998,-155.5001"/>
</g>
<!-- ListClientComponent -->
<g id="node5" class="node">
<title>ListClientComponent</title>
<polygon fill="#ffffb3" stroke="#000000" points="1012.8342,-122 875.1658,-122 875.1658,-86 1012.8342,-86 1012.8342,-122"/>
<text text-anchor="middle" x="944" y="-99.8" font-family="Times,serif" font-size="14.00" fill="#000000">ListClientComponent</text>
</g>
<!-- ListClientComponent&#45;&gt;PrestationsModule -->
<g id="edge5" class="edge">
<title>ListClientComponent&#45;&gt;PrestationsModule</title>
<path fill="none" stroke="#000000" d="M897.4124,-122.1061C897.4124,-122.1061 897.4124,-140.991 897.4124,-140.991"/>
<polygon fill="#000000" stroke="#000000" points="893.9124,-140.9909 897.4124,-150.991 900.9124,-140.991 893.9124,-140.9909"/>
</g>
<!-- ListPrestationsComponent -->
<g id="node6" class="node">
<title>ListPrestationsComponent</title>
<polygon fill="#ffffb3" stroke="#000000" points="857.0448,-122 692.9552,-122 692.9552,-86 857.0448,-86 857.0448,-122"/>
<text text-anchor="middle" x="775" y="-99.8" font-family="Times,serif" font-size="14.00" fill="#000000">ListPrestationsComponent</text>
</g>
<!-- ListPrestationsComponent&#45;&gt;PrestationsModule -->
<g id="edge6" class="edge">
<title>ListPrestationsComponent&#45;&gt;PrestationsModule</title>
<path fill="none" stroke="#000000" d="M827.8903,-122.1061C827.8903,-122.1061 827.8903,-140.991 827.8903,-140.991"/>
<polygon fill="#000000" stroke="#000000" points="824.3903,-140.9909 827.8903,-150.991 831.3903,-140.991 824.3903,-140.9909"/>
</g>
<!-- PageAddPrestationComponent -->
<g id="node7" class="node">
<title>PageAddPrestationComponent</title>
<polygon fill="#ffffb3" stroke="#000000" points="674.1399,-122 485.8601,-122 485.8601,-86 674.1399,-86 674.1399,-122"/>
<text text-anchor="middle" x="580" y="-99.8" font-family="Times,serif" font-size="14.00" fill="#000000">PageAddPrestationComponent</text>
</g>
<!-- PageAddPrestationComponent&#45;&gt;PrestationsModule -->
<g id="edge7" class="edge">
<title>PageAddPrestationComponent&#45;&gt;PrestationsModule</title>
<path fill="none" stroke="#000000" d="M580,-122.0091C580,-138.0494 580,-159 580,-159 580,-159 788.4612,-159 788.4612,-159"/>
<polygon fill="#000000" stroke="#000000" points="788.4612,-162.5001 798.4612,-159 788.4611,-155.5001 788.4612,-162.5001"/>
</g>
<!-- PrestationsComponent -->
<g id="node8" class="node">
<title>PrestationsComponent</title>
<polygon fill="#ffffb3" stroke="#000000" points="467.266,-122 324.734,-122 324.734,-86 467.266,-86 467.266,-122"/>
<text text-anchor="middle" x="396" y="-99.8" font-family="Times,serif" font-size="14.00" fill="#000000">PrestationsComponent</text>
</g>
<!-- PrestationsComponent&#45;&gt;PrestationsModule -->
<g id="edge8" class="edge">
<title>PrestationsComponent&#45;&gt;PrestationsModule</title>
<path fill="none" stroke="#000000" d="M396,-122.2667C396,-140.5552 396,-166 396,-166 396,-166 788.4708,-166 788.4708,-166"/>
<polygon fill="#000000" stroke="#000000" points="788.4709,-169.5001 798.4708,-166 788.4708,-162.5001 788.4709,-169.5001"/>
</g>
<!-- PrestationRoutingModule -->
<g id="node10" class="node">
<title>PrestationRoutingModule</title>
<polygon fill="#8dd3c7" stroke="#000000" points="301.1568,-122 298.1568,-126 277.1568,-126 274.1568,-122 140.8432,-122 140.8432,-86 301.1568,-86 301.1568,-122"/>
<text text-anchor="middle" x="221" y="-99.8" font-family="Times,serif" font-size="14.00" fill="#000000">PrestationRoutingModule</text>
</g>
<!-- PrestationRoutingModule&#45;&gt;PrestationsModule -->
<g id="edge9" class="edge">
<title>PrestationRoutingModule&#45;&gt;PrestationsModule</title>
<path fill="none" stroke="#000000" d="M221,-122.1289C221,-142.5724 221,-173 221,-173 221,-173 788.4033,-173 788.4033,-173"/>
<polygon fill="#000000" stroke="#000000" points="788.4034,-176.5001 798.4033,-173 788.4033,-169.5001 788.4034,-176.5001"/>
</g>
<!-- SharedModule -->
<g id="node11" class="node">
<title>SharedModule</title>
<polygon fill="#8dd3c7" stroke="#000000" points="122.4231,-122 119.4231,-126 98.4231,-126 95.4231,-122 23.5769,-122 23.5769,-86 122.4231,-86 122.4231,-122"/>
<text text-anchor="middle" x="73" y="-99.8" font-family="Times,serif" font-size="14.00" fill="#000000">SharedModule</text>
</g>
<!-- SharedModule&#45;&gt;PrestationsModule -->
<g id="edge10" class="edge">
<title>SharedModule&#45;&gt;PrestationsModule</title>
<path fill="none" stroke="#000000" d="M73,-122.0109C73,-144.4852 73,-180 73,-180 73,-180 788.3038,-180 788.3038,-180"/>
<polygon fill="#000000" stroke="#000000" points="788.3039,-183.5001 798.3038,-180 788.3038,-176.5001 788.3039,-183.5001"/>
</g>
</g>
</svg>
