<?xml version="1.0" encoding="UTF-8" standalone="no"?>
<!DOCTYPE svg PUBLIC "-//W3C//DTD SVG 1.1//EN"
 "http://www.w3.org/Graphics/SVG/1.1/DTD/svg11.dtd">
<!-- Generated by graphviz version 2.40.1 (20161225.0304)
 -->
<!-- Title: dependencies Pages: 1 -->
<svg width="653pt" height="284pt"
 viewBox="0.00 0.00 653.00 284.00" xmlns="http://www.w3.org/2000/svg" xmlns:xlink="http://www.w3.org/1999/xlink">
<g id="graph0" class="graph" transform="scale(1 1) rotate(0) translate(4 280)">
<title>dependencies</title>
<polygon fill="#ffffff" stroke="transparent" points="-4,4 -4,-280 649,-280 649,4 -4,4"/>
<text text-anchor="start" x="301.5091" y="-42.4" font-family="sans-serif" font-weight="bold" font-size="14.00" fill="#000000">Legend</text>
<polygon fill="#ffffb3" stroke="transparent" points="88.5,-10 88.5,-30 108.5,-30 108.5,-10 88.5,-10"/>
<text text-anchor="start" x="112.129" y="-15.4" font-family="sans-serif" font-size="14.00" fill="#000000"> &#160;Declarations</text>
<polygon fill="#8dd3c7" stroke="transparent" points="201.5,-10 201.5,-30 221.5,-30 221.5,-10 201.5,-10"/>
<text text-anchor="start" x="225.2251" y="-15.4" font-family="sans-serif" font-size="14.00" fill="#000000"> &#160;Module</text>
<polygon fill="#80b1d3" stroke="transparent" points="287.5,-10 287.5,-30 307.5,-30 307.5,-10 287.5,-10"/>
<text text-anchor="start" x="311.2812" y="-15.4" font-family="sans-serif" font-size="14.00" fill="#000000"> &#160;Bootstrap</text>
<polygon fill="#fdb462" stroke="transparent" points="384.5,-10 384.5,-30 404.5,-30 404.5,-10 384.5,-10"/>
<text text-anchor="start" x="408.1732" y="-15.4" font-family="sans-serif" font-size="14.00" fill="#000000"> &#160;Providers</text>
<polygon fill="#fb8072" stroke="transparent" points="480.5,-10 480.5,-30 500.5,-30 500.5,-10 480.5,-10"/>
<text text-anchor="start" x="504.2258" y="-15.4" font-family="sans-serif" font-size="14.00" fill="#000000"> &#160;Exports</text>
<g id="clust1" class="cluster">
<title>cluster_AppModule</title>
<polygon fill="none" stroke="#000000" stroke-dasharray="1,5" points="8,-70 8,-268 637,-268 637,-70 8,-70"/>
</g>
<g id="clust2" class="cluster">
<title>cluster_AppModule_declarations</title>
<polygon fill="none" stroke="#000000" points="507,-78 507,-130 629,-130 629,-78 507,-78"/>
</g>
<g id="clust4" class="cluster">
<title>cluster_AppModule_imports</title>
<polygon fill="none" stroke="#000000" points="16,-78 16,-130 499,-130 499,-78 16,-78"/>
</g>
<g id="clust6" class="cluster">
<title>cluster_AppModule_bootstrap</title>
<polygon fill="none" stroke="#000000" points="236,-208 236,-260 360,-260 360,-208 236,-208"/>
</g>
<!-- AppComponent -->
<g id="node1" class="node">
<title>AppComponent</title>
<polygon fill="#ffffb3" stroke="#000000" points="620.9399,-122 515.0601,-122 515.0601,-86 620.9399,-86 620.9399,-122"/>
<text text-anchor="middle" x="568" y="-99.8" font-family="Times,serif" font-size="14.00" fill="#000000">AppComponent</text>
</g>
<!-- AppModule -->
<g id="node2" class="node">
<title>AppModule</title>
<polygon fill="#8dd3c7" stroke="#000000" points="339.6571,-187 336.6571,-191 315.6571,-191 312.6571,-187 256.3429,-187 256.3429,-151 339.6571,-151 339.6571,-187"/>
<text text-anchor="middle" x="298" y="-164.8" font-family="Times,serif" font-size="14.00" fill="#000000">AppModule</text>
</g>
<!-- AppComponent&#45;&gt;AppModule -->
<g id="edge1" class="edge">
<title>AppComponent&#45;&gt;AppModule</title>
<path fill="none" stroke="#000000" d="M568,-122.2843C568,-143.3211 568,-175 568,-175 568,-175 349.8913,-175 349.8913,-175"/>
<polygon fill="#000000" stroke="#000000" points="349.8913,-171.5001 339.8913,-175 349.8912,-178.5001 349.8913,-171.5001"/>
</g>
<!-- AppComponent  -->
<g id="node7" class="node">
<title>AppComponent </title>
<polygon fill="#80b1d3" stroke="#000000" points="352.439,-252 243.561,-252 243.561,-216 352.439,-216 352.439,-252"/>
<text text-anchor="middle" x="298" y="-229.8" font-family="Times,serif" font-size="14.00" fill="#000000">AppComponent </text>
</g>
<!-- AppModule&#45;&gt;AppComponent  -->
<g id="edge6" class="edge">
<title>AppModule&#45;&gt;AppComponent </title>
<path fill="none" stroke="#000000" stroke-dasharray="1,5" d="M298,-187.1061C298,-187.1061 298,-205.991 298,-205.991"/>
<polygon fill="#000000" stroke="#000000" points="294.5001,-205.9909 298,-215.991 301.5001,-205.991 294.5001,-205.9909"/>
</g>
<!-- AppRoutingModule -->
<g id="node3" class="node">
<title>AppRoutingModule</title>
<polygon fill="#8dd3c7" stroke="#000000" points="491.2744,-122 488.2744,-126 467.2744,-126 464.2744,-122 362.7256,-122 362.7256,-86 491.2744,-86 491.2744,-122"/>
<text text-anchor="middle" x="427" y="-99.8" font-family="Times,serif" font-size="14.00" fill="#000000">AppRoutingModule</text>
</g>
<!-- AppRoutingModule&#45;&gt;AppModule -->
<g id="edge2" class="edge">
<title>AppRoutingModule&#45;&gt;AppModule</title>
<path fill="none" stroke="#000000" d="M427,-122.0225C427,-139.3734 427,-163 427,-163 427,-163 349.8826,-163 349.8826,-163"/>
<polygon fill="#000000" stroke="#000000" points="349.8826,-159.5001 339.8826,-163 349.8826,-166.5001 349.8826,-159.5001"/>
</g>
<!-- LoginModule -->
<g id="node4" class="node">
<title>LoginModule</title>
<polygon fill="#8dd3c7" stroke="#000000" points="344.493,-122 341.493,-126 320.493,-126 317.493,-122 251.507,-122 251.507,-86 344.493,-86 344.493,-122"/>
<text text-anchor="middle" x="298" y="-99.8" font-family="Times,serif" font-size="14.00" fill="#000000">LoginModule</text>
</g>
<!-- LoginModule&#45;&gt;AppModule -->
<g id="edge3" class="edge">
<title>LoginModule&#45;&gt;AppModule</title>
<path fill="none" stroke="#000000" d="M298,-122.1061C298,-122.1061 298,-140.991 298,-140.991"/>
<polygon fill="#000000" stroke="#000000" points="294.5001,-140.9909 298,-150.991 301.5001,-140.991 294.5001,-140.9909"/>
</g>
<!-- TemplatesModule -->
<g id="node5" class="node">
<title>TemplatesModule</title>
<polygon fill="#8dd3c7" stroke="#000000" points="233.8627,-122 230.8627,-126 209.8627,-126 206.8627,-122 116.1373,-122 116.1373,-86 233.8627,-86 233.8627,-122"/>
<text text-anchor="middle" x="175" y="-99.8" font-family="Times,serif" font-size="14.00" fill="#000000">TemplatesModule</text>
</g>
<!-- TemplatesModule&#45;&gt;AppModule -->
<g id="edge4" class="edge">
<title>TemplatesModule&#45;&gt;AppModule</title>
<path fill="none" stroke="#000000" d="M175,-122.0225C175,-139.3734 175,-163 175,-163 175,-163 246.0144,-163 246.0144,-163"/>
<polygon fill="#000000" stroke="#000000" points="246.0144,-166.5001 256.0144,-163 246.0144,-159.5001 246.0144,-166.5001"/>
</g>
<!-- UiModule -->
<g id="node6" class="node">
<title>UiModule</title>
<polygon fill="#8dd3c7" stroke="#000000" points="97.5484,-122 94.5484,-126 73.5484,-126 70.5484,-122 24.4516,-122 24.4516,-86 97.5484,-86 97.5484,-122"/>
<text text-anchor="middle" x="61" y="-99.8" font-family="Times,serif" font-size="14.00" fill="#000000">UiModule</text>
</g>
<!-- UiModule&#45;&gt;AppModule -->
<g id="edge5" class="edge">
<title>UiModule&#45;&gt;AppModule</title>
<path fill="none" stroke="#000000" d="M61,-122.2843C61,-143.3211 61,-175 61,-175 61,-175 246.1747,-175 246.1747,-175"/>
<polygon fill="#000000" stroke="#000000" points="246.1747,-178.5001 256.1747,-175 246.1747,-171.5001 246.1747,-178.5001"/>
</g>
</g>
</svg>
