<?xml version="1.0" encoding="UTF-8" standalone="no"?>
<!DOCTYPE svg PUBLIC "-//W3C//DTD SVG 1.1//EN"
 "http://www.w3.org/Graphics/SVG/1.1/DTD/svg11.dtd">
<!-- Generated by graphviz version 2.40.1 (20161225.0304)
 -->
<!-- Title: dependencies Pages: 1 -->
<svg width="504pt" height="211pt"
 viewBox="0.00 0.00 504.00 211.00" xmlns="http://www.w3.org/2000/svg" xmlns:xlink="http://www.w3.org/1999/xlink">
<g id="graph0" class="graph" transform="scale(1 1) rotate(0) translate(4 207)">
<title>dependencies</title>
<polygon fill="#ffffff" stroke="transparent" points="-4,4 -4,-207 500,-207 500,4 -4,4"/>
<text text-anchor="start" x="227.0091" y="-42.4" font-family="sans-serif" font-weight="bold" font-size="14.00" fill="#000000">Legend</text>
<polygon fill="#ffffb3" stroke="transparent" points="14,-10 14,-30 34,-30 34,-10 14,-10"/>
<text text-anchor="start" x="37.629" y="-15.4" font-family="sans-serif" font-size="14.00" fill="#000000"> &#160;Declarations</text>
<polygon fill="#8dd3c7" stroke="transparent" points="127,-10 127,-30 147,-30 147,-10 127,-10"/>
<text text-anchor="start" x="150.7251" y="-15.4" font-family="sans-serif" font-size="14.00" fill="#000000"> &#160;Module</text>
<polygon fill="#80b1d3" stroke="transparent" points="213,-10 213,-30 233,-30 233,-10 213,-10"/>
<text text-anchor="start" x="236.7812" y="-15.4" font-family="sans-serif" font-size="14.00" fill="#000000"> &#160;Bootstrap</text>
<polygon fill="#fdb462" stroke="transparent" points="310,-10 310,-30 330,-30 330,-10 310,-10"/>
<text text-anchor="start" x="333.6732" y="-15.4" font-family="sans-serif" font-size="14.00" fill="#000000"> &#160;Providers</text>
<polygon fill="#fb8072" stroke="transparent" points="406,-10 406,-30 426,-30 426,-10 406,-10"/>
<text text-anchor="start" x="429.7258" y="-15.4" font-family="sans-serif" font-size="14.00" fill="#000000"> &#160;Exports</text>
<g id="clust1" class="cluster">
<title>cluster_PageNotFoundModule</title>
<polygon fill="none" stroke="#000000" stroke-dasharray="1,5" points="43,-70 43,-195 453,-195 453,-70 43,-70"/>
</g>
<g id="clust2" class="cluster">
<title>cluster_PageNotFoundModule_declarations</title>
<polygon fill="none" stroke="#000000" points="269,-78 269,-130 445,-130 445,-78 269,-78"/>
</g>
<g id="clust4" class="cluster">
<title>cluster_PageNotFoundModule_imports</title>
<polygon fill="none" stroke="#000000" points="51,-78 51,-130 261,-130 261,-78 51,-78"/>
</g>
<!-- PagenotfoundComponent -->
<g id="node1" class="node">
<title>PagenotfoundComponent</title>
<polygon fill="#ffffb3" stroke="#000000" points="436.5954,-122 277.4046,-122 277.4046,-86 436.5954,-86 436.5954,-122"/>
<text text-anchor="middle" x="357" y="-99.8" font-family="Times,serif" font-size="14.00" fill="#000000">PagenotfoundComponent</text>
</g>
<!-- PageNotFoundModule -->
<g id="node2" class="node">
<title>PageNotFoundModule</title>
<polygon fill="#8dd3c7" stroke="#000000" points="327.5421,-187 324.5421,-191 303.5421,-191 300.5421,-187 184.4579,-187 184.4579,-151 327.5421,-151 327.5421,-187"/>
<text text-anchor="middle" x="256" y="-164.8" font-family="Times,serif" font-size="14.00" fill="#000000">PageNotFoundModule</text>
</g>
<!-- PagenotfoundComponent&#45;&gt;PageNotFoundModule -->
<g id="edge1" class="edge">
<title>PagenotfoundComponent&#45;&gt;PageNotFoundModule</title>
<path fill="none" stroke="#000000" d="M302.6115,-122.1061C302.6115,-122.1061 302.6115,-140.991 302.6115,-140.991"/>
<polygon fill="#000000" stroke="#000000" points="299.1116,-140.9909 302.6115,-150.991 306.1116,-140.991 299.1116,-140.9909"/>
</g>
<!-- PageNoteFoundRoutingModule -->
<g id="node3" class="node">
<title>PageNoteFoundRoutingModule</title>
<polygon fill="#8dd3c7" stroke="#000000" points="253.3738,-122 250.3738,-126 229.3738,-126 226.3738,-122 58.6262,-122 58.6262,-86 253.3738,-86 253.3738,-122"/>
<text text-anchor="middle" x="156" y="-99.8" font-family="Times,serif" font-size="14.00" fill="#000000">PageNoteFoundRoutingModule</text>
</g>
<!-- PageNoteFoundRoutingModule&#45;&gt;PageNotFoundModule -->
<g id="edge2" class="edge">
<title>PageNoteFoundRoutingModule&#45;&gt;PageNotFoundModule</title>
<path fill="none" stroke="#000000" d="M218.8331,-122.1061C218.8331,-122.1061 218.8331,-140.991 218.8331,-140.991"/>
<polygon fill="#000000" stroke="#000000" points="215.3332,-140.9909 218.8331,-150.991 222.3332,-140.991 215.3332,-140.9909"/>
</g>
</g>
</svg>
