<?xml version="1.0" encoding="UTF-8" standalone="no"?>
<!DOCTYPE svg PUBLIC "-//W3C//DTD SVG 1.1//EN"
 "http://www.w3.org/Graphics/SVG/1.1/DTD/svg11.dtd">
<!-- Generated by graphviz version 2.40.1 (20161225.0304)
 -->
<!-- Title: dependencies Pages: 1 -->
<svg width="4098pt" height="374pt"
 viewBox="0.00 0.00 4098.00 374.00" xmlns="http://www.w3.org/2000/svg" xmlns:xlink="http://www.w3.org/1999/xlink">
<g id="graph0" class="graph" transform="scale(1 1) rotate(0) translate(4 370)">
<title>dependencies</title>
<polygon fill="#ffffff" stroke="transparent" points="-4,4 -4,-370 4094,-370 4094,4 -4,4"/>
<text text-anchor="start" x="2024.0091" y="-42.4" font-family="sans-serif" font-weight="bold" font-size="14.00" fill="#000000">Legend</text>
<polygon fill="#ffffb3" stroke="transparent" points="1811,-10 1811,-30 1831,-30 1831,-10 1811,-10"/>
<text text-anchor="start" x="1834.629" y="-15.4" font-family="sans-serif" font-size="14.00" fill="#000000"> &#160;Declarations</text>
<polygon fill="#8dd3c7" stroke="transparent" points="1924,-10 1924,-30 1944,-30 1944,-10 1924,-10"/>
<text text-anchor="start" x="1947.7251" y="-15.4" font-family="sans-serif" font-size="14.00" fill="#000000"> &#160;Module</text>
<polygon fill="#80b1d3" stroke="transparent" points="2010,-10 2010,-30 2030,-30 2030,-10 2010,-10"/>
<text text-anchor="start" x="2033.7812" y="-15.4" font-family="sans-serif" font-size="14.00" fill="#000000"> &#160;Bootstrap</text>
<polygon fill="#fdb462" stroke="transparent" points="2107,-10 2107,-30 2127,-30 2127,-10 2107,-10"/>
<text text-anchor="start" x="2130.6732" y="-15.4" font-family="sans-serif" font-size="14.00" fill="#000000"> &#160;Providers</text>
<polygon fill="#fb8072" stroke="transparent" points="2203,-10 2203,-30 2223,-30 2223,-10 2203,-10"/>
<text text-anchor="start" x="2226.7258" y="-15.4" font-family="sans-serif" font-size="14.00" fill="#000000"> &#160;Exports</text>
<g id="clust1" class="cluster">
<title>cluster_AppModule</title>
<polygon fill="none" stroke="#000000" stroke-dasharray="1,5" points="2770,-146 2770,-358 3399,-358 3399,-146 2770,-146"/>
</g>
<g id="clust2" class="cluster">
<title>cluster_AppModule_declarations</title>
<polygon fill="none" stroke="#000000" points="2778,-154 2778,-206 2900,-206 2900,-154 2778,-154"/>
</g>
<g id="clust4" class="cluster">
<title>cluster_AppModule_imports</title>
<polygon fill="none" stroke="#000000" points="2908,-154 2908,-206 3391,-206 3391,-154 2908,-154"/>
</g>
<g id="clust6" class="cluster">
<title>cluster_AppModule_bootstrap</title>
<polygon fill="none" stroke="#000000" points="2992,-298 2992,-350 3116,-350 3116,-298 2992,-298"/>
</g>
<g id="clust14" class="cluster">
<title>cluster_ClientsModule</title>
<polygon fill="none" stroke="#000000" stroke-dasharray="1,5" points="8,-214 8,-350 485,-350 485,-214 8,-214"/>
</g>
<g id="clust15" class="cluster">
<title>cluster_ClientsModule_declarations</title>
<polygon fill="none" stroke="#000000" points="184,-222 184,-274 477,-274 477,-222 184,-222"/>
</g>
<g id="clust18" class="cluster">
<title>cluster_ClientsModule_imports</title>
<polygon fill="none" stroke="#000000" points="16,-222 16,-274 176,-274 176,-222 16,-222"/>
</g>
<g id="clust28" class="cluster">
<title>cluster_LoginModule</title>
<polygon fill="none" stroke="#000000" stroke-dasharray="1,5" points="3239,-70 3239,-138 3413,-138 3413,-70 3239,-70"/>
</g>
<g id="clust29" class="cluster">
<title>cluster_LoginModule_declarations</title>
<polygon fill="none" stroke="#000000" points="3247,-78 3247,-130 3405,-130 3405,-78 3247,-78"/>
</g>
<g id="clust41" class="cluster">
<title>cluster_PageNotFoundModule</title>
<polygon fill="none" stroke="#000000" stroke-dasharray="1,5" points="3539,-70 3539,-206 3949,-206 3949,-70 3539,-70"/>
</g>
<g id="clust42" class="cluster">
<title>cluster_PageNotFoundModule_declarations</title>
<polygon fill="none" stroke="#000000" points="3765,-78 3765,-130 3941,-130 3941,-78 3765,-78"/>
</g>
<g id="clust44" class="cluster">
<title>cluster_PageNotFoundModule_imports</title>
<polygon fill="none" stroke="#000000" points="3547,-78 3547,-130 3757,-130 3757,-78 3547,-78"/>
</g>
<g id="clust54" class="cluster">
<title>cluster_PrestationsModule</title>
<polygon fill="none" stroke="#000000" stroke-dasharray="1,5" points="493,-214 493,-350 2134,-350 2134,-214 493,-214"/>
</g>
<g id="clust55" class="cluster">
<title>cluster_PrestationsModule_declarations</title>
<polygon fill="none" stroke="#000000" points="501,-222 501,-274 1825,-274 1825,-222 501,-222"/>
</g>
<g id="clust64" class="cluster">
<title>cluster_PrestationsModule_imports</title>
<polygon fill="none" stroke="#000000" points="1833,-222 1833,-274 2126,-274 2126,-222 1833,-222"/>
</g>
<g id="clust68" class="cluster">
<title>cluster_SharedModule</title>
<polygon fill="none" stroke="#000000" stroke-dasharray="1,5" points="2142,-290 2142,-358 2762,-358 2762,-290 2142,-290"/>
</g>
<g id="clust69" class="cluster">
<title>cluster_SharedModule_declarations</title>
<polygon fill="none" stroke="#000000" points="2530,-298 2530,-350 2754,-350 2754,-298 2530,-298"/>
</g>
<g id="clust73" class="cluster">
<title>cluster_SharedModule_exports</title>
<polygon fill="none" stroke="#000000" points="2150,-298 2150,-350 2522,-350 2522,-298 2150,-298"/>
</g>
<g id="clust76" class="cluster">
<title>cluster_TemplatesModule</title>
<polygon fill="none" stroke="#000000" stroke-dasharray="1,5" points="3407,-214 3407,-282 4082,-282 4082,-214 3407,-214"/>
</g>
<g id="clust77" class="cluster">
<title>cluster_TemplatesModule_declarations</title>
<polygon fill="none" stroke="#000000" points="3752,-222 3752,-274 4074,-274 4074,-222 3752,-222"/>
</g>
<g id="clust81" class="cluster">
<title>cluster_TemplatesModule_exports</title>
<polygon fill="none" stroke="#000000" points="3415,-222 3415,-274 3744,-274 3744,-222 3415,-222"/>
</g>
<g id="clust84" class="cluster">
<title>cluster_UiModule</title>
<polygon fill="none" stroke="#000000" stroke-dasharray="1,5" points="2583,-70 2583,-138 3231,-138 3231,-70 2583,-70"/>
</g>
<g id="clust85" class="cluster">
<title>cluster_UiModule_declarations</title>
<polygon fill="none" stroke="#000000" points="2713,-78 2713,-130 3223,-130 3223,-78 2713,-78"/>
</g>
<g id="clust91" class="cluster">
<title>cluster_UiModule_exports</title>
<polygon fill="none" stroke="#000000" points="2591,-78 2591,-130 2705,-130 2705,-78 2591,-78"/>
</g>
<!-- AppComponent -->
<g id="node1" class="node">
<title>AppComponent</title>
<polygon fill="#ffffb3" stroke="#000000" points="2891.9399,-198 2786.0601,-198 2786.0601,-162 2891.9399,-162 2891.9399,-198"/>
<text text-anchor="middle" x="2839" y="-175.8" font-family="Times,serif" font-size="14.00" fill="#000000">AppComponent</text>
</g>
<!-- AppModule -->
<g id="node2" class="node">
<title>AppModule</title>
<polygon fill="#8dd3c7" stroke="#000000" points="3095.6571,-266 3092.6571,-270 3071.6571,-270 3068.6571,-266 3012.3429,-266 3012.3429,-230 3095.6571,-230 3095.6571,-266"/>
<text text-anchor="middle" x="3054" y="-243.8" font-family="Times,serif" font-size="14.00" fill="#000000">AppModule</text>
</g>
<!-- AppComponent&#45;&gt;AppModule -->
<g id="edge1" class="edge">
<title>AppComponent&#45;&gt;AppModule</title>
<path fill="none" stroke="#000000" d="M2839,-198.1985C2839,-222.3563 2839,-262 2839,-262 2839,-262 3002.2909,-262 3002.2909,-262"/>
<polygon fill="#000000" stroke="#000000" points="3002.2909,-265.5001 3012.2909,-262 3002.2909,-258.5001 3002.2909,-265.5001"/>
</g>
<!-- AppComponent  -->
<g id="node7" class="node">
<title>AppComponent </title>
<polygon fill="#80b1d3" stroke="#000000" points="3108.439,-342 2999.561,-342 2999.561,-306 3108.439,-306 3108.439,-342"/>
<text text-anchor="middle" x="3054" y="-319.8" font-family="Times,serif" font-size="14.00" fill="#000000">AppComponent </text>
</g>
<!-- AppModule&#45;&gt;AppComponent  -->
<g id="edge6" class="edge">
<title>AppModule&#45;&gt;AppComponent </title>
<path fill="none" stroke="#000000" stroke-dasharray="1,5" d="M3054,-266.0109C3054,-266.0109 3054,-295.855 3054,-295.855"/>
<polygon fill="#000000" stroke="#000000" points="3050.5001,-295.8549 3054,-305.855 3057.5001,-295.855 3050.5001,-295.8549"/>
</g>
<!-- AppRoutingModule -->
<g id="node3" class="node">
<title>AppRoutingModule</title>
<polygon fill="#8dd3c7" stroke="#000000" points="3247.2744,-198 3244.2744,-202 3223.2744,-202 3220.2744,-198 3118.7256,-198 3118.7256,-162 3247.2744,-162 3247.2744,-198"/>
<text text-anchor="middle" x="3183" y="-175.8" font-family="Times,serif" font-size="14.00" fill="#000000">AppRoutingModule</text>
</g>
<!-- AppRoutingModule&#45;&gt;AppModule -->
<g id="edge2" class="edge">
<title>AppRoutingModule&#45;&gt;AppModule</title>
<path fill="none" stroke="#000000" d="M3183,-198.2228C3183,-218.3652 3183,-248 3183,-248 3183,-248 3105.8826,-248 3105.8826,-248"/>
<polygon fill="#000000" stroke="#000000" points="3105.8826,-244.5001 3095.8826,-248 3105.8826,-251.5001 3105.8826,-244.5001"/>
</g>
<!-- LoginModule -->
<g id="node4" class="node">
<title>LoginModule</title>
<polygon fill="#8dd3c7" stroke="#000000" points="3100.493,-198 3097.493,-202 3076.493,-202 3073.493,-198 3007.507,-198 3007.507,-162 3100.493,-162 3100.493,-198"/>
<text text-anchor="middle" x="3054" y="-175.8" font-family="Times,serif" font-size="14.00" fill="#000000">LoginModule</text>
</g>
<!-- LoginModule&#45;&gt;AppModule -->
<g id="edge3" class="edge">
<title>LoginModule&#45;&gt;AppModule</title>
<path fill="none" stroke="#000000" d="M3054,-198.2228C3054,-198.2228 3054,-219.7269 3054,-219.7269"/>
<polygon fill="#000000" stroke="#000000" points="3050.5001,-219.7269 3054,-229.7269 3057.5001,-219.727 3050.5001,-219.7269"/>
</g>
<!-- TemplatesModule -->
<g id="node5" class="node">
<title>TemplatesModule</title>
<polygon fill="#8dd3c7" stroke="#000000" points="3382.8627,-198 3379.8627,-202 3358.8627,-202 3355.8627,-198 3265.1373,-198 3265.1373,-162 3382.8627,-162 3382.8627,-198"/>
<text text-anchor="middle" x="3324" y="-175.8" font-family="Times,serif" font-size="14.00" fill="#000000">TemplatesModule</text>
</g>
<!-- TemplatesModule&#45;&gt;AppModule -->
<g id="edge4" class="edge">
<title>TemplatesModule&#45;&gt;AppModule</title>
<path fill="none" stroke="#000000" d="M3343.6438,-198.2479C3343.6438,-221.0179 3343.6438,-257 3343.6438,-257 3343.6438,-257 3105.8074,-257 3105.8074,-257"/>
<polygon fill="#000000" stroke="#000000" points="3105.8074,-253.5001 3095.8074,-257 3105.8073,-260.5001 3105.8074,-253.5001"/>
</g>
<!-- SharedModule -->
<g id="node25" class="node">
<title>SharedModule</title>
<polygon fill="#8dd3c7" stroke="#000000" points="2118.4231,-266 2115.4231,-270 2094.4231,-270 2091.4231,-266 2019.5769,-266 2019.5769,-230 2118.4231,-230 2118.4231,-266"/>
<text text-anchor="middle" x="2069" y="-243.8" font-family="Times,serif" font-size="14.00" fill="#000000">SharedModule</text>
</g>
<!-- TemplatesModule&#45;&gt;SharedModule -->
<g id="edge25" class="edge">
<title>TemplatesModule&#45;&gt;SharedModule</title>
<path fill="none" stroke="#000000" d="M3284.7125,-198.0579C3284.7125,-202.4945 3284.7125,-206 3284.7125,-206 3284.7125,-206 2069,-206 2069,-206 2069,-206 2069,-219.9445 2069,-219.9445"/>
<polygon fill="#000000" stroke="#000000" points="2065.5001,-219.9444 2069,-229.9445 2072.5001,-219.9445 2065.5001,-219.9444"/>
</g>
<!-- TemplateAComponent  -->
<g id="node33" class="node">
<title>TemplateAComponent </title>
<polygon fill="#fb8072" stroke="#000000" points="3570.8073,-266 3423.1927,-266 3423.1927,-230 3570.8073,-230 3570.8073,-266"/>
<text text-anchor="middle" x="3497" y="-243.8" font-family="Times,serif" font-size="14.00" fill="#000000">TemplateAComponent </text>
</g>
<!-- TemplatesModule&#45;&gt;TemplateAComponent  -->
<g id="edge31" class="edge">
<title>TemplatesModule&#45;&gt;TemplateAComponent </title>
<path fill="none" stroke="#000000" stroke-dasharray="5,2" d="M3363.2875,-198.0225C3363.2875,-215.3734 3363.2875,-239 3363.2875,-239 3363.2875,-239 3413.1041,-239 3413.1041,-239"/>
<polygon fill="#000000" stroke="#000000" points="3413.1042,-242.5001 3423.1041,-239 3413.1041,-235.5001 3413.1042,-242.5001"/>
</g>
<!-- TemplateBComponent  -->
<g id="node34" class="node">
<title>TemplateBComponent </title>
<polygon fill="#fb8072" stroke="#000000" points="3735.5372,-266 3588.4628,-266 3588.4628,-230 3735.5372,-230 3735.5372,-266"/>
<text text-anchor="middle" x="3662" y="-243.8" font-family="Times,serif" font-size="14.00" fill="#000000">TemplateBComponent </text>
</g>
<!-- TemplatesModule&#45;&gt;TemplateBComponent  -->
<g id="edge32" class="edge">
<title>TemplatesModule&#45;&gt;TemplateBComponent </title>
<path fill="none" stroke="#000000" stroke-dasharray="5,2" d="M3383.106,-180C3473.1527,-180 3634.3554,-180 3634.3554,-180 3634.3554,-180 3634.3554,-219.7772 3634.3554,-219.7772"/>
<polygon fill="#000000" stroke="#000000" points="3630.8554,-219.7772 3634.3554,-229.7772 3637.8554,-219.7773 3630.8554,-219.7772"/>
</g>
<!-- UiModule -->
<g id="node6" class="node">
<title>UiModule</title>
<polygon fill="#8dd3c7" stroke="#000000" points="2989.5484,-198 2986.5484,-202 2965.5484,-202 2962.5484,-198 2916.4516,-198 2916.4516,-162 2989.5484,-162 2989.5484,-198"/>
<text text-anchor="middle" x="2953" y="-175.8" font-family="Times,serif" font-size="14.00" fill="#000000">UiModule</text>
</g>
<!-- UiModule&#45;&gt;AppModule -->
<g id="edge5" class="edge">
<title>UiModule&#45;&gt;AppModule</title>
<path fill="none" stroke="#000000" d="M2953,-198.2479C2953,-221.0179 2953,-257 2953,-257 2953,-257 3002.3363,-257 3002.3363,-257"/>
<polygon fill="#000000" stroke="#000000" points="3002.3364,-260.5001 3012.3363,-257 3002.3363,-253.5001 3002.3364,-260.5001"/>
</g>
<!-- UiComponent  -->
<g id="node39" class="node">
<title>UiComponent </title>
<polygon fill="#fb8072" stroke="#000000" points="2697.3297,-122 2598.6703,-122 2598.6703,-86 2697.3297,-86 2697.3297,-122"/>
<text text-anchor="middle" x="2648" y="-99.8" font-family="Times,serif" font-size="14.00" fill="#000000">UiComponent </text>
</g>
<!-- UiModule&#45;&gt;UiComponent  -->
<g id="edge37" class="edge">
<title>UiModule&#45;&gt;UiComponent </title>
<path fill="none" stroke="#000000" stroke-dasharray="5,2" d="M2922.0016,-161.9421C2922.0016,-157.5055 2922.0016,-154 2922.0016,-154 2922.0016,-154 2673.5795,-154 2673.5795,-154 2673.5795,-154 2673.5795,-132.0511 2673.5795,-132.0511"/>
<polygon fill="#000000" stroke="#000000" points="2677.0796,-132.0511 2673.5795,-122.0511 2670.0796,-132.0512 2677.0796,-132.0511"/>
</g>
<!-- ClientsComponent -->
<g id="node8" class="node">
<title>ClientsComponent</title>
<polygon fill="#ffffb3" stroke="#000000" points="313.5,-266 192.5,-266 192.5,-230 313.5,-230 313.5,-266"/>
<text text-anchor="middle" x="253" y="-243.8" font-family="Times,serif" font-size="14.00" fill="#000000">ClientsComponent</text>
</g>
<!-- ClientsModule -->
<g id="node10" class="node">
<title>ClientsModule</title>
<polygon fill="#8dd3c7" stroke="#000000" points="302.7176,-342 299.7176,-346 278.7176,-346 275.7176,-342 203.2824,-342 203.2824,-306 302.7176,-306 302.7176,-342"/>
<text text-anchor="middle" x="253" y="-319.8" font-family="Times,serif" font-size="14.00" fill="#000000">ClientsModule</text>
</g>
<!-- ClientsComponent&#45;&gt;ClientsModule -->
<g id="edge7" class="edge">
<title>ClientsComponent&#45;&gt;ClientsModule</title>
<path fill="none" stroke="#000000" d="M253,-266.0109C253,-266.0109 253,-295.855 253,-295.855"/>
<polygon fill="#000000" stroke="#000000" points="249.5001,-295.8549 253,-305.855 256.5001,-295.855 249.5001,-295.8549"/>
</g>
<!-- ListClientComponent -->
<g id="node9" class="node">
<title>ListClientComponent</title>
<polygon fill="#ffffb3" stroke="#000000" points="468.8342,-266 331.1658,-266 331.1658,-230 468.8342,-230 468.8342,-266"/>
<text text-anchor="middle" x="400" y="-243.8" font-family="Times,serif" font-size="14.00" fill="#000000">ListClientComponent</text>
</g>
<!-- ListClientComponent&#45;&gt;ClientsModule -->
<g id="edge8" class="edge">
<title>ListClientComponent&#45;&gt;ClientsModule</title>
<path fill="none" stroke="#000000" d="M377.111,-266.2337C377.111,-292.0094 377.111,-336 377.111,-336 377.111,-336 312.7656,-336 312.7656,-336"/>
<polygon fill="#000000" stroke="#000000" points="312.7656,-332.5001 302.7656,-336 312.7655,-339.5001 312.7656,-332.5001"/>
</g>
<!-- PrestationsModule -->
<g id="node23" class="node">
<title>PrestationsModule</title>
<polygon fill="#8dd3c7" stroke="#000000" points="1290.4832,-342 1287.4832,-346 1266.4832,-346 1263.4832,-342 1169.5168,-342 1169.5168,-306 1290.4832,-306 1290.4832,-342"/>
<text text-anchor="middle" x="1230" y="-319.8" font-family="Times,serif" font-size="14.00" fill="#000000">PrestationsModule</text>
</g>
<!-- ListClientComponent&#45;&gt;PrestationsModule -->
<g id="edge17" class="edge">
<title>ListClientComponent&#45;&gt;PrestationsModule</title>
<path fill="none" stroke="#000000" d="M422.889,-266.1985C422.889,-290.3563 422.889,-330 422.889,-330 422.889,-330 1159.3355,-330 1159.3355,-330"/>
<polygon fill="#000000" stroke="#000000" points="1159.3355,-333.5001 1169.3355,-330 1159.3355,-326.5001 1159.3355,-333.5001"/>
</g>
<!-- ClientsRoutingModule -->
<g id="node11" class="node">
<title>ClientsRoutingModule</title>
<polygon fill="#8dd3c7" stroke="#000000" points="168.3356,-266 165.3356,-270 144.3356,-270 141.3356,-266 23.6644,-266 23.6644,-230 168.3356,-230 168.3356,-266"/>
<text text-anchor="middle" x="96" y="-243.8" font-family="Times,serif" font-size="14.00" fill="#000000">ClientsRoutingModule</text>
</g>
<!-- ClientsRoutingModule&#45;&gt;ClientsModule -->
<g id="edge9" class="edge">
<title>ClientsRoutingModule&#45;&gt;ClientsModule</title>
<path fill="none" stroke="#000000" d="M96,-266.0109C96,-288.4852 96,-324 96,-324 96,-324 193.3242,-324 193.3242,-324"/>
<polygon fill="#000000" stroke="#000000" points="193.3243,-327.5001 203.3242,-324 193.3242,-320.5001 193.3243,-327.5001"/>
</g>
<!-- PageLoginComponent -->
<g id="node12" class="node">
<title>PageLoginComponent</title>
<polygon fill="#ffffb3" stroke="#000000" points="3396.9874,-122 3255.0126,-122 3255.0126,-86 3396.9874,-86 3396.9874,-122"/>
<text text-anchor="middle" x="3326" y="-99.8" font-family="Times,serif" font-size="14.00" fill="#000000">PageLoginComponent</text>
</g>
<!-- PageLoginComponent&#45;&gt;LoginModule -->
<g id="edge10" class="edge">
<title>PageLoginComponent&#45;&gt;LoginModule</title>
<path fill="none" stroke="#000000" d="M3260.0375,-122.1944C3260.0375,-130.2782 3260.0375,-138 3260.0375,-138 3260.0375,-138 3087.9657,-138 3087.9657,-138 3087.9657,-138 3087.9657,-151.9445 3087.9657,-151.9445"/>
<polygon fill="#000000" stroke="#000000" points="3084.4657,-151.9444 3087.9657,-161.9445 3091.4657,-151.9445 3084.4657,-151.9444"/>
</g>
<!-- PagenotfoundComponent -->
<g id="node13" class="node">
<title>PagenotfoundComponent</title>
<polygon fill="#ffffb3" stroke="#000000" points="3932.5954,-122 3773.4046,-122 3773.4046,-86 3932.5954,-86 3932.5954,-122"/>
<text text-anchor="middle" x="3853" y="-99.8" font-family="Times,serif" font-size="14.00" fill="#000000">PagenotfoundComponent</text>
</g>
<!-- PageNotFoundModule -->
<g id="node14" class="node">
<title>PageNotFoundModule</title>
<polygon fill="#8dd3c7" stroke="#000000" points="3823.5421,-198 3820.5421,-202 3799.5421,-202 3796.5421,-198 3680.4579,-198 3680.4579,-162 3823.5421,-162 3823.5421,-198"/>
<text text-anchor="middle" x="3752" y="-175.8" font-family="Times,serif" font-size="14.00" fill="#000000">PageNotFoundModule</text>
</g>
<!-- PagenotfoundComponent&#45;&gt;PageNotFoundModule -->
<g id="edge11" class="edge">
<title>PagenotfoundComponent&#45;&gt;PageNotFoundModule</title>
<path fill="none" stroke="#000000" d="M3798.6115,-122.0109C3798.6115,-122.0109 3798.6115,-151.855 3798.6115,-151.855"/>
<polygon fill="#000000" stroke="#000000" points="3795.1116,-151.8549 3798.6115,-161.855 3802.1116,-151.855 3795.1116,-151.8549"/>
</g>
<!-- PageNoteFoundRoutingModule -->
<g id="node15" class="node">
<title>PageNoteFoundRoutingModule</title>
<polygon fill="#8dd3c7" stroke="#000000" points="3749.3738,-122 3746.3738,-126 3725.3738,-126 3722.3738,-122 3554.6262,-122 3554.6262,-86 3749.3738,-86 3749.3738,-122"/>
<text text-anchor="middle" x="3652" y="-99.8" font-family="Times,serif" font-size="14.00" fill="#000000">PageNoteFoundRoutingModule</text>
</g>
<!-- PageNoteFoundRoutingModule&#45;&gt;PageNotFoundModule -->
<g id="edge12" class="edge">
<title>PageNoteFoundRoutingModule&#45;&gt;PageNotFoundModule</title>
<path fill="none" stroke="#000000" d="M3714.8331,-122.0109C3714.8331,-122.0109 3714.8331,-151.855 3714.8331,-151.855"/>
<polygon fill="#000000" stroke="#000000" points="3711.3332,-151.8549 3714.8331,-161.855 3718.3332,-151.855 3711.3332,-151.8549"/>
</g>
<!-- AddPrestationComponent -->
<g id="node16" class="node">
<title>AddPrestationComponent</title>
<polygon fill="#ffffb3" stroke="#000000" points="670.9284,-266 509.0716,-266 509.0716,-230 670.9284,-230 670.9284,-266"/>
<text text-anchor="middle" x="590" y="-243.8" font-family="Times,serif" font-size="14.00" fill="#000000">AddPrestationComponent</text>
</g>
<!-- AddPrestationComponent&#45;&gt;PrestationsModule -->
<g id="edge13" class="edge">
<title>AddPrestationComponent&#45;&gt;PrestationsModule</title>
<path fill="none" stroke="#000000" d="M590,-266.0109C590,-288.4852 590,-324 590,-324 590,-324 1159.5021,-324 1159.5021,-324"/>
<polygon fill="#000000" stroke="#000000" points="1159.5022,-327.5001 1169.5021,-324 1159.5021,-320.5001 1159.5022,-327.5001"/>
</g>
<!-- FormPrestationComponent -->
<g id="node17" class="node">
<title>FormPrestationComponent</title>
<polygon fill="#ffffb3" stroke="#000000" points="1816.6554,-266 1649.3446,-266 1649.3446,-230 1816.6554,-230 1816.6554,-266"/>
<text text-anchor="middle" x="1733" y="-243.8" font-family="Times,serif" font-size="14.00" fill="#000000">FormPrestationComponent</text>
</g>
<!-- FormPrestationComponent&#45;&gt;PrestationsModule -->
<g id="edge14" class="edge">
<title>FormPrestationComponent&#45;&gt;PrestationsModule</title>
<path fill="none" stroke="#000000" d="M1733,-266.0449C1733,-287.6623 1733,-321 1733,-321 1733,-321 1300.6736,-321 1300.6736,-321"/>
<polygon fill="#000000" stroke="#000000" points="1300.6736,-317.5001 1290.6736,-321 1300.6735,-324.5001 1300.6736,-317.5001"/>
</g>
<!-- FormPrestationRectiveComponent -->
<g id="node18" class="node">
<title>FormPrestationRectiveComponent</title>
<polygon fill="#ffffb3" stroke="#000000" points="1631.417,-266 1420.583,-266 1420.583,-230 1631.417,-230 1631.417,-266"/>
<text text-anchor="middle" x="1526" y="-243.8" font-family="Times,serif" font-size="14.00" fill="#000000">FormPrestationRectiveComponent</text>
</g>
<!-- FormPrestationRectiveComponent&#45;&gt;PrestationsModule -->
<g id="edge15" class="edge">
<title>FormPrestationRectiveComponent&#45;&gt;PrestationsModule</title>
<path fill="none" stroke="#000000" d="M1526,-266.0348C1526,-285.5762 1526,-314 1526,-314 1526,-314 1300.6143,-314 1300.6143,-314"/>
<polygon fill="#000000" stroke="#000000" points="1300.6143,-310.5001 1290.6143,-314 1300.6143,-317.5001 1300.6143,-310.5001"/>
</g>
<!-- ItemPrestationComponent -->
<g id="node19" class="node">
<title>ItemPrestationComponent</title>
<polygon fill="#ffffb3" stroke="#000000" points="1402.4776,-266 1239.5224,-266 1239.5224,-230 1402.4776,-230 1402.4776,-266"/>
<text text-anchor="middle" x="1321" y="-243.8" font-family="Times,serif" font-size="14.00" fill="#000000">ItemPrestationComponent</text>
</g>
<!-- ItemPrestationComponent&#45;&gt;PrestationsModule -->
<g id="edge16" class="edge">
<title>ItemPrestationComponent&#45;&gt;PrestationsModule</title>
<path fill="none" stroke="#000000" d="M1265.0014,-266.0109C1265.0014,-266.0109 1265.0014,-295.855 1265.0014,-295.855"/>
<polygon fill="#000000" stroke="#000000" points="1261.5015,-295.8549 1265.0014,-305.855 1268.5015,-295.855 1261.5015,-295.8549"/>
</g>
<!-- ListPrestationsComponent -->
<g id="node20" class="node">
<title>ListPrestationsComponent</title>
<polygon fill="#ffffb3" stroke="#000000" points="1221.0448,-266 1056.9552,-266 1056.9552,-230 1221.0448,-230 1221.0448,-266"/>
<text text-anchor="middle" x="1139" y="-243.8" font-family="Times,serif" font-size="14.00" fill="#000000">ListPrestationsComponent</text>
</g>
<!-- ListPrestationsComponent&#45;&gt;PrestationsModule -->
<g id="edge18" class="edge">
<title>ListPrestationsComponent&#45;&gt;PrestationsModule</title>
<path fill="none" stroke="#000000" d="M1195.3903,-266.0109C1195.3903,-266.0109 1195.3903,-295.855 1195.3903,-295.855"/>
<polygon fill="#000000" stroke="#000000" points="1191.8903,-295.8549 1195.3903,-305.855 1198.8903,-295.855 1191.8903,-295.8549"/>
</g>
<!-- PageAddPrestationComponent -->
<g id="node21" class="node">
<title>PageAddPrestationComponent</title>
<polygon fill="#ffffb3" stroke="#000000" points="1038.1399,-266 849.8601,-266 849.8601,-230 1038.1399,-230 1038.1399,-266"/>
<text text-anchor="middle" x="944" y="-243.8" font-family="Times,serif" font-size="14.00" fill="#000000">PageAddPrestationComponent</text>
</g>
<!-- PageAddPrestationComponent&#45;&gt;PrestationsModule -->
<g id="edge19" class="edge">
<title>PageAddPrestationComponent&#45;&gt;PrestationsModule</title>
<path fill="none" stroke="#000000" d="M944,-266.1686C944,-285.0898 944,-312 944,-312 944,-312 1159.3468,-312 1159.3468,-312"/>
<polygon fill="#000000" stroke="#000000" points="1159.3468,-315.5001 1169.3468,-312 1159.3467,-308.5001 1159.3468,-315.5001"/>
</g>
<!-- PrestationsComponent -->
<g id="node22" class="node">
<title>PrestationsComponent</title>
<polygon fill="#ffffb3" stroke="#000000" points="831.266,-266 688.734,-266 688.734,-230 831.266,-230 831.266,-266"/>
<text text-anchor="middle" x="760" y="-243.8" font-family="Times,serif" font-size="14.00" fill="#000000">PrestationsComponent</text>
</g>
<!-- PrestationsComponent&#45;&gt;PrestationsModule -->
<g id="edge20" class="edge">
<title>PrestationsComponent&#45;&gt;PrestationsModule</title>
<path fill="none" stroke="#000000" d="M760,-266.0267C760,-286.7672 760,-318 760,-318 760,-318 1159.0375,-318 1159.0375,-318"/>
<polygon fill="#000000" stroke="#000000" points="1159.0376,-321.5001 1169.0375,-318 1159.0375,-314.5001 1159.0376,-321.5001"/>
</g>
<!-- PrestationRoutingModule -->
<g id="node24" class="node">
<title>PrestationRoutingModule</title>
<polygon fill="#8dd3c7" stroke="#000000" points="2001.1568,-266 1998.1568,-270 1977.1568,-270 1974.1568,-266 1840.8432,-266 1840.8432,-230 2001.1568,-230 2001.1568,-266"/>
<text text-anchor="middle" x="1921" y="-243.8" font-family="Times,serif" font-size="14.00" fill="#000000">PrestationRoutingModule</text>
</g>
<!-- PrestationRoutingModule&#45;&gt;PrestationsModule -->
<g id="edge21" class="edge">
<title>PrestationRoutingModule&#45;&gt;PrestationsModule</title>
<path fill="none" stroke="#000000" d="M1921,-266.1532C1921,-289.7566 1921,-328 1921,-328 1921,-328 1300.716,-328 1300.716,-328"/>
<polygon fill="#000000" stroke="#000000" points="1300.7161,-324.5001 1290.716,-328 1300.716,-331.5001 1300.7161,-324.5001"/>
</g>
<!-- SharedModule&#45;&gt;PrestationsModule -->
<g id="edge22" class="edge">
<title>SharedModule&#45;&gt;PrestationsModule</title>
<path fill="none" stroke="#000000" d="M2069,-266.0265C2069,-291.5093 2069,-335 2069,-335 2069,-335 1300.6763,-335 1300.6763,-335"/>
<polygon fill="#000000" stroke="#000000" points="1300.6764,-331.5001 1290.6763,-335 1300.6763,-338.5001 1300.6764,-331.5001"/>
</g>
<!-- AppStateDirective  -->
<g id="node28" class="node">
<title>AppStateDirective </title>
<polygon fill="#fb8072" stroke="#000000" points="2513.6828,-342 2390.3172,-342 2390.3172,-306 2513.6828,-306 2513.6828,-342"/>
<text text-anchor="middle" x="2452" y="-319.8" font-family="Times,serif" font-size="14.00" fill="#000000">AppStateDirective </text>
</g>
<!-- SharedModule&#45;&gt;AppStateDirective  -->
<g id="edge26" class="edge">
<title>SharedModule&#45;&gt;AppStateDirective </title>
<path fill="none" stroke="#000000" stroke-dasharray="5,2" d="M2118.2865,-244C2221.7287,-244 2452,-244 2452,-244 2452,-244 2452,-295.8468 2452,-295.8468"/>
<polygon fill="#000000" stroke="#000000" points="2448.5001,-295.8467 2452,-305.8468 2455.5001,-295.8468 2448.5001,-295.8467"/>
</g>
<!-- TemplatesModule  -->
<g id="node29" class="node">
<title>TemplatesModule </title>
<polygon fill="#fb8072" stroke="#000000" points="2371.8631,-342 2250.1369,-342 2250.1369,-306 2371.8631,-306 2371.8631,-342"/>
<text text-anchor="middle" x="2311" y="-319.8" font-family="Times,serif" font-size="14.00" fill="#000000">TemplatesModule </text>
</g>
<!-- SharedModule&#45;&gt;TemplatesModule  -->
<g id="edge27" class="edge">
<title>SharedModule&#45;&gt;TemplatesModule </title>
<path fill="none" stroke="#000000" stroke-dasharray="5,2" d="M2118.264,-248C2189.0212,-248 2311,-248 2311,-248 2311,-248 2311,-295.9891 2311,-295.9891"/>
<polygon fill="#000000" stroke="#000000" points="2307.5001,-295.989 2311,-305.9891 2314.5001,-295.9891 2307.5001,-295.989"/>
</g>
<!-- TotalPipe  -->
<g id="node30" class="node">
<title>TotalPipe </title>
<polygon fill="#fb8072" stroke="#000000" points="2231.9362,-342 2158.0638,-342 2158.0638,-306 2231.9362,-306 2231.9362,-342"/>
<text text-anchor="middle" x="2195" y="-319.8" font-family="Times,serif" font-size="14.00" fill="#000000">TotalPipe </text>
</g>
<!-- SharedModule&#45;&gt;TotalPipe  -->
<g id="edge28" class="edge">
<title>SharedModule&#45;&gt;TotalPipe </title>
<path fill="none" stroke="#000000" stroke-dasharray="5,2" d="M2118.4369,-253C2153.7365,-253 2195,-253 2195,-253 2195,-253 2195,-295.7157 2195,-295.7157"/>
<polygon fill="#000000" stroke="#000000" points="2191.5001,-295.7157 2195,-305.7157 2198.5001,-295.7158 2191.5001,-295.7157"/>
</g>
<!-- AppStateDirective -->
<g id="node26" class="node">
<title>AppStateDirective</title>
<polygon fill="#ffffb3" stroke="#000000" points="2746.1825,-342 2625.8175,-342 2625.8175,-306 2746.1825,-306 2746.1825,-342"/>
<text text-anchor="middle" x="2686" y="-319.8" font-family="Times,serif" font-size="14.00" fill="#000000">AppStateDirective</text>
</g>
<!-- AppStateDirective&#45;&gt;SharedModule -->
<g id="edge23" class="edge">
<title>AppStateDirective&#45;&gt;SharedModule</title>
<path fill="none" stroke="#000000" d="M2649.7441,-305.9895C2649.7441,-279.9835 2649.7441,-235 2649.7441,-235 2649.7441,-235 2128.5139,-235 2128.5139,-235"/>
<polygon fill="#000000" stroke="#000000" points="2128.514,-231.5001 2118.5139,-235 2128.5139,-238.5001 2128.514,-231.5001"/>
</g>
<!-- TotalPipe -->
<g id="node27" class="node">
<title>TotalPipe</title>
<polygon fill="#ffffb3" stroke="#000000" points="2608.4376,-342 2537.5624,-342 2537.5624,-306 2608.4376,-306 2608.4376,-342"/>
<text text-anchor="middle" x="2573" y="-319.8" font-family="Times,serif" font-size="14.00" fill="#000000">TotalPipe</text>
</g>
<!-- TotalPipe&#45;&gt;SharedModule -->
<g id="edge24" class="edge">
<title>TotalPipe&#45;&gt;SharedModule</title>
<path fill="none" stroke="#000000" d="M2568.1836,-305.9737C2568.1836,-281.0227 2568.1836,-239 2568.1836,-239 2568.1836,-239 2128.2298,-239 2128.2298,-239"/>
<polygon fill="#000000" stroke="#000000" points="2128.2298,-235.5001 2118.2298,-239 2128.2298,-242.5001 2128.2298,-235.5001"/>
</g>
<!-- TemplateAComponent -->
<g id="node31" class="node">
<title>TemplateAComponent</title>
<polygon fill="#ffffb3" stroke="#000000" points="3904.3075,-266 3759.6925,-266 3759.6925,-230 3904.3075,-230 3904.3075,-266"/>
<text text-anchor="middle" x="3832" y="-243.8" font-family="Times,serif" font-size="14.00" fill="#000000">TemplateAComponent</text>
</g>
<!-- TemplateAComponent&#45;&gt;TemplatesModule -->
<g id="edge29" class="edge">
<title>TemplateAComponent&#45;&gt;TemplatesModule</title>
<path fill="none" stroke="#000000" d="M3791.8086,-229.9421C3791.8086,-225.5055 3791.8086,-222 3791.8086,-222 3791.8086,-222 3304.3562,-222 3304.3562,-222 3304.3562,-222 3304.3562,-208.0555 3304.3562,-208.0555"/>
<polygon fill="#000000" stroke="#000000" points="3307.8563,-208.0555 3304.3562,-198.0555 3300.8563,-208.0556 3307.8563,-208.0555"/>
</g>
<!-- TemplateBComponent -->
<g id="node32" class="node">
<title>TemplateBComponent</title>
<polygon fill="#ffffb3" stroke="#000000" points="4065.5379,-266 3922.4621,-266 3922.4621,-230 4065.5379,-230 4065.5379,-266"/>
<text text-anchor="middle" x="3994" y="-243.8" font-family="Times,serif" font-size="14.00" fill="#000000">TemplateBComponent</text>
</g>
<!-- TemplateBComponent&#45;&gt;TemplatesModule -->
<g id="edge30" class="edge">
<title>TemplateBComponent&#45;&gt;TemplatesModule</title>
<path fill="none" stroke="#000000" d="M3927.3896,-229.8056C3927.3896,-221.7218 3927.3896,-214 3927.3896,-214 3927.3896,-214 3324,-214 3324,-214 3324,-214 3324,-208.1944 3324,-208.1944"/>
<polygon fill="#000000" stroke="#000000" points="3327.5001,-208.1944 3324,-198.1944 3320.5001,-208.1945 3327.5001,-208.1944"/>
</g>
<!-- FooterComponent -->
<g id="node35" class="node">
<title>FooterComponent</title>
<polygon fill="#ffffb3" stroke="#000000" points="3214.8809,-122 3097.1191,-122 3097.1191,-86 3214.8809,-86 3214.8809,-122"/>
<text text-anchor="middle" x="3156" y="-99.8" font-family="Times,serif" font-size="14.00" fill="#000000">FooterComponent</text>
</g>
<!-- FooterComponent&#45;&gt;UiModule -->
<g id="edge33" class="edge">
<title>FooterComponent&#45;&gt;UiModule</title>
<path fill="none" stroke="#000000" d="M3104.483,-122.0579C3104.483,-126.4945 3104.483,-130 3104.483,-130 3104.483,-130 2978.8918,-130 2978.8918,-130 2978.8918,-130 2978.8918,-151.9489 2978.8918,-151.9489"/>
<polygon fill="#000000" stroke="#000000" points="2975.3919,-151.9488 2978.8918,-161.9489 2982.3919,-151.9489 2975.3919,-151.9488"/>
</g>
<!-- HeaderComponent -->
<g id="node36" class="node">
<title>HeaderComponent</title>
<polygon fill="#ffffb3" stroke="#000000" points="3078.7437,-122 2957.2563,-122 2957.2563,-86 3078.7437,-86 3078.7437,-122"/>
<text text-anchor="middle" x="3018" y="-99.8" font-family="Times,serif" font-size="14.00" fill="#000000">HeaderComponent</text>
</g>
<!-- HeaderComponent&#45;&gt;UiModule -->
<g id="edge34" class="edge">
<title>HeaderComponent&#45;&gt;UiModule</title>
<path fill="none" stroke="#000000" d="M2968.01,-122.0109C2968.01,-122.0109 2968.01,-151.855 2968.01,-151.855"/>
<polygon fill="#000000" stroke="#000000" points="2964.5101,-151.8549 2968.01,-161.855 2971.5101,-151.855 2964.5101,-151.8549"/>
</g>
<!-- NavComponent -->
<g id="node37" class="node">
<title>NavComponent</title>
<polygon fill="#ffffb3" stroke="#000000" points="2939.1542,-122 2834.8458,-122 2834.8458,-86 2939.1542,-86 2939.1542,-122"/>
<text text-anchor="middle" x="2887" y="-99.8" font-family="Times,serif" font-size="14.00" fill="#000000">NavComponent</text>
</g>
<!-- NavComponent&#45;&gt;UiModule -->
<g id="edge35" class="edge">
<title>NavComponent&#45;&gt;UiModule</title>
<path fill="none" stroke="#000000" d="M2933.5517,-122.0109C2933.5517,-122.0109 2933.5517,-151.855 2933.5517,-151.855"/>
<polygon fill="#000000" stroke="#000000" points="2930.0518,-151.8549 2933.5517,-161.855 2937.0518,-151.855 2930.0518,-151.8549"/>
</g>
<!-- UiComponent -->
<g id="node38" class="node">
<title>UiComponent</title>
<polygon fill="#ffffb3" stroke="#000000" points="2816.8302,-122 2721.1698,-122 2721.1698,-86 2816.8302,-86 2816.8302,-122"/>
<text text-anchor="middle" x="2769" y="-99.8" font-family="Times,serif" font-size="14.00" fill="#000000">UiComponent</text>
</g>
<!-- UiComponent&#45;&gt;UiModule -->
<g id="edge36" class="edge">
<title>UiComponent&#45;&gt;UiModule</title>
<path fill="none" stroke="#000000" d="M2801.4727,-122.0555C2801.4727,-133.439 2801.4727,-146 2801.4727,-146 2801.4727,-146 2927.7766,-146 2927.7766,-146 2927.7766,-146 2927.7766,-151.8056 2927.7766,-151.8056"/>
<polygon fill="#000000" stroke="#000000" points="2924.2767,-151.8055 2927.7766,-161.8056 2931.2767,-151.8056 2924.2767,-151.8055"/>
</g>
</g>
</svg>
