<?xml version="1.0" encoding="UTF-8" standalone="no"?>
<!DOCTYPE svg PUBLIC "-//W3C//DTD SVG 1.1//EN"
 "http://www.w3.org/Graphics/SVG/1.1/DTD/svg11.dtd">
<!-- Generated by graphviz version 2.40.1 (20161225.0304)
 -->
<!-- Title: dependencies Pages: 1 -->
<svg width="504pt" height="211pt"
 viewBox="0.00 0.00 504.00 211.00" xmlns="http://www.w3.org/2000/svg" xmlns:xlink="http://www.w3.org/1999/xlink">
<g id="graph0" class="graph" transform="scale(1 1) rotate(0) translate(4 207)">
<title>dependencies</title>
<polygon fill="#ffffff" stroke="transparent" points="-4,4 -4,-207 500,-207 500,4 -4,4"/>
<text text-anchor="start" x="227.0091" y="-42.4" font-family="sans-serif" font-weight="bold" font-size="14.00" fill="#000000">Legend</text>
<polygon fill="#ffffb3" stroke="transparent" points="14,-10 14,-30 34,-30 34,-10 14,-10"/>
<text text-anchor="start" x="37.629" y="-15.4" font-family="sans-serif" font-size="14.00" fill="#000000"> &#160;Declarations</text>
<polygon fill="#8dd3c7" stroke="transparent" points="127,-10 127,-30 147,-30 147,-10 127,-10"/>
<text text-anchor="start" x="150.7251" y="-15.4" font-family="sans-serif" font-size="14.00" fill="#000000"> &#160;Module</text>
<polygon fill="#80b1d3" stroke="transparent" points="213,-10 213,-30 233,-30 233,-10 213,-10"/>
<text text-anchor="start" x="236.7812" y="-15.4" font-family="sans-serif" font-size="14.00" fill="#000000"> &#160;Bootstrap</text>
<polygon fill="#fdb462" stroke="transparent" points="310,-10 310,-30 330,-30 330,-10 310,-10"/>
<text text-anchor="start" x="333.6732" y="-15.4" font-family="sans-serif" font-size="14.00" fill="#000000"> &#160;Providers</text>
<polygon fill="#fb8072" stroke="transparent" points="406,-10 406,-30 426,-30 426,-10 406,-10"/>
<text text-anchor="start" x="429.7258" y="-15.4" font-family="sans-serif" font-size="14.00" fill="#000000"> &#160;Exports</text>
<g id="clust1" class="cluster">
<title>cluster_ClientsModule</title>
<polygon fill="none" stroke="#000000" stroke-dasharray="1,5" points="9.5,-70 9.5,-195 486.5,-195 486.5,-70 9.5,-70"/>
</g>
<g id="clust2" class="cluster">
<title>cluster_ClientsModule_declarations</title>
<polygon fill="none" stroke="#000000" points="185.5,-78 185.5,-130 478.5,-130 478.5,-78 185.5,-78"/>
</g>
<g id="clust5" class="cluster">
<title>cluster_ClientsModule_imports</title>
<polygon fill="none" stroke="#000000" points="17.5,-78 17.5,-130 177.5,-130 177.5,-78 17.5,-78"/>
</g>
<!-- ClientsComponent -->
<g id="node1" class="node">
<title>ClientsComponent</title>
<polygon fill="#ffffb3" stroke="#000000" points="470,-122 349,-122 349,-86 470,-86 470,-122"/>
<text text-anchor="middle" x="409.5" y="-99.8" font-family="Times,serif" font-size="14.00" fill="#000000">ClientsComponent</text>
</g>
<!-- ClientsModule -->
<g id="node3" class="node">
<title>ClientsModule</title>
<polygon fill="#8dd3c7" stroke="#000000" points="312.2176,-187 309.2176,-191 288.2176,-191 285.2176,-187 212.7824,-187 212.7824,-151 312.2176,-151 312.2176,-187"/>
<text text-anchor="middle" x="262.5" y="-164.8" font-family="Times,serif" font-size="14.00" fill="#000000">ClientsModule</text>
</g>
<!-- ClientsComponent&#45;&gt;ClientsModule -->
<g id="edge1" class="edge">
<title>ClientsComponent&#45;&gt;ClientsModule</title>
<path fill="none" stroke="#000000" d="M409.5,-122.1061C409.5,-141.3391 409.5,-169 409.5,-169 409.5,-169 322.2675,-169 322.2675,-169"/>
<polygon fill="#000000" stroke="#000000" points="322.2675,-165.5001 312.2675,-169 322.2675,-172.5001 322.2675,-165.5001"/>
</g>
<!-- ListClientComponent -->
<g id="node2" class="node">
<title>ListClientComponent</title>
<polygon fill="#ffffb3" stroke="#000000" points="331.3342,-122 193.6658,-122 193.6658,-86 331.3342,-86 331.3342,-122"/>
<text text-anchor="middle" x="262.5" y="-99.8" font-family="Times,serif" font-size="14.00" fill="#000000">ListClientComponent</text>
</g>
<!-- ListClientComponent&#45;&gt;ClientsModule -->
<g id="edge2" class="edge">
<title>ListClientComponent&#45;&gt;ClientsModule</title>
<path fill="none" stroke="#000000" d="M262.5,-122.1061C262.5,-122.1061 262.5,-140.991 262.5,-140.991"/>
<polygon fill="#000000" stroke="#000000" points="259.0001,-140.9909 262.5,-150.991 266.0001,-140.991 259.0001,-140.9909"/>
</g>
<!-- ClientsRoutingModule -->
<g id="node4" class="node">
<title>ClientsRoutingModule</title>
<polygon fill="#8dd3c7" stroke="#000000" points="169.8356,-122 166.8356,-126 145.8356,-126 142.8356,-122 25.1644,-122 25.1644,-86 169.8356,-86 169.8356,-122"/>
<text text-anchor="middle" x="97.5" y="-99.8" font-family="Times,serif" font-size="14.00" fill="#000000">ClientsRoutingModule</text>
</g>
<!-- ClientsRoutingModule&#45;&gt;ClientsModule -->
<g id="edge3" class="edge">
<title>ClientsRoutingModule&#45;&gt;ClientsModule</title>
<path fill="none" stroke="#000000" d="M97.5,-122.1061C97.5,-141.3391 97.5,-169 97.5,-169 97.5,-169 202.5468,-169 202.5468,-169"/>
<polygon fill="#000000" stroke="#000000" points="202.5468,-172.5001 212.5468,-169 202.5468,-165.5001 202.5468,-172.5001"/>
</g>
</g>
</svg>
